<mxfile host="app.diagrams.net" modified="2022-12-24T11:56:25.502Z" agent="5.0 (Windows)" etag="xKRQpD2CO5xuQS6xbqKq" version="20.7.4" type="github">
  <diagram id="C5RBs43oDa-KdzZeNtuy" name="Page-1">
    <mxGraphModel dx="763" dy="482" grid="1" gridSize="10" guides="1" tooltips="1" connect="1" arrows="1" fold="1" page="1" pageScale="1" pageWidth="1200" pageHeight="1200" math="0" shadow="0">
      <root>
        <mxCell id="WIyWlLk6GJQsqaUBKTNV-0" />
        <mxCell id="WIyWlLk6GJQsqaUBKTNV-1" parent="WIyWlLk6GJQsqaUBKTNV-0" />
        <mxCell id="Skbbb8CCbyP5ibG20lvN-107" style="edgeStyle=none;orthogonalLoop=1;jettySize=auto;html=1;strokeColor=default;startArrow=none;startFill=0;endArrow=block;endFill=0;endSize=16;" edge="1" parent="WIyWlLk6GJQsqaUBKTNV-1" source="zkfFHV4jXpPFQw0GAbJ--0">
          <mxGeometry relative="1" as="geometry">
            <mxPoint x="500" y="320" as="targetPoint" />
          </mxGeometry>
        </mxCell>
        <mxCell id="Skbbb8CCbyP5ibG20lvN-108" style="edgeStyle=none;orthogonalLoop=1;jettySize=auto;html=1;strokeColor=default;startArrow=none;startFill=0;endArrow=none;endFill=0;exitX=0.75;exitY=0;exitDx=0;exitDy=0;" edge="1" parent="WIyWlLk6GJQsqaUBKTNV-1" source="zkfFHV4jXpPFQw0GAbJ--0">
          <mxGeometry x="0.375" y="-10" relative="1" as="geometry">
            <mxPoint x="220" y="270" as="targetPoint" />
            <mxPoint y="1" as="offset" />
          </mxGeometry>
        </mxCell>
        <mxCell id="zkfFHV4jXpPFQw0GAbJ--0" value="Medcin" style="swimlane;fontStyle=1;align=center;verticalAlign=top;childLayout=stackLayout;horizontal=1;startSize=26;horizontalStack=0;resizeParent=1;resizeLast=0;collapsible=1;marginBottom=0;rounded=0;shadow=0;strokeWidth=1;" parent="WIyWlLk6GJQsqaUBKTNV-1" vertex="1">
          <mxGeometry x="100" y="430" width="160" height="180" as="geometry">
            <mxRectangle x="230" y="140" width="160" height="26" as="alternateBounds" />
          </mxGeometry>
        </mxCell>
        <mxCell id="zkfFHV4jXpPFQw0GAbJ--1" value="-idMed:int&#xa;" style="text;align=left;verticalAlign=top;spacingLeft=4;spacingRight=4;overflow=hidden;rotatable=0;points=[[0,0.5],[1,0.5]];portConstraint=eastwest;" parent="zkfFHV4jXpPFQw0GAbJ--0" vertex="1">
          <mxGeometry y="26" width="160" height="26" as="geometry" />
        </mxCell>
        <mxCell id="zkfFHV4jXpPFQw0GAbJ--4" value="" style="line;html=1;strokeWidth=1;align=left;verticalAlign=middle;spacingTop=-1;spacingLeft=3;spacingRight=3;rotatable=0;labelPosition=right;points=[];portConstraint=eastwest;" parent="zkfFHV4jXpPFQw0GAbJ--0" vertex="1">
          <mxGeometry y="52" width="160" height="42" as="geometry" />
        </mxCell>
        <mxCell id="zkfFHV4jXpPFQw0GAbJ--17" value="Appareil" style="swimlane;fontStyle=1;align=center;verticalAlign=top;childLayout=stackLayout;horizontal=1;startSize=26;horizontalStack=0;resizeParent=1;resizeLast=0;collapsible=1;marginBottom=0;rounded=0;shadow=0;strokeWidth=1;" parent="WIyWlLk6GJQsqaUBKTNV-1" vertex="1">
          <mxGeometry x="870" y="450" width="180" height="120" as="geometry">
            <mxRectangle x="550" y="140" width="160" height="26" as="alternateBounds" />
          </mxGeometry>
        </mxCell>
        <mxCell id="zkfFHV4jXpPFQw0GAbJ--20" value="-idAppareil:int" style="text;align=left;verticalAlign=top;spacingLeft=4;spacingRight=4;overflow=hidden;rotatable=0;points=[[0,0.5],[1,0.5]];portConstraint=eastwest;rounded=0;shadow=0;html=0;" parent="zkfFHV4jXpPFQw0GAbJ--17" vertex="1">
          <mxGeometry y="26" width="180" height="26" as="geometry" />
        </mxCell>
        <mxCell id="zkfFHV4jXpPFQw0GAbJ--21" value="-etatAffectation:Boolean" style="text;align=left;verticalAlign=top;spacingLeft=4;spacingRight=4;overflow=hidden;rotatable=0;points=[[0,0.5],[1,0.5]];portConstraint=eastwest;rounded=0;shadow=0;html=0;" parent="zkfFHV4jXpPFQw0GAbJ--17" vertex="1">
          <mxGeometry y="52" width="180" height="26" as="geometry" />
        </mxCell>
        <mxCell id="zkfFHV4jXpPFQw0GAbJ--22" value="-dateTempConx:DateTemp" style="text;align=left;verticalAlign=top;spacingLeft=4;spacingRight=4;overflow=hidden;rotatable=0;points=[[0,0.5],[1,0.5]];portConstraint=eastwest;rounded=0;shadow=0;html=0;" parent="zkfFHV4jXpPFQw0GAbJ--17" vertex="1">
          <mxGeometry y="78" width="180" height="26" as="geometry" />
        </mxCell>
        <mxCell id="zkfFHV4jXpPFQw0GAbJ--23" value="" style="line;html=1;strokeWidth=1;align=left;verticalAlign=middle;spacingTop=-1;spacingLeft=3;spacingRight=3;rotatable=0;labelPosition=right;points=[];portConstraint=eastwest;" parent="zkfFHV4jXpPFQw0GAbJ--17" vertex="1">
          <mxGeometry y="104" width="180" height="8" as="geometry" />
        </mxCell>
        <mxCell id="zkfFHV4jXpPFQw0GAbJ--26" value="" style="endArrow=none;shadow=0;strokeWidth=1;rounded=0;endFill=0;elbow=vertical;startArrow=none;startFill=0;" parent="WIyWlLk6GJQsqaUBKTNV-1" target="zkfFHV4jXpPFQw0GAbJ--17" edge="1">
          <mxGeometry x="0.5" y="41" relative="1" as="geometry">
            <mxPoint x="260" y="510" as="sourcePoint" />
            <mxPoint x="930" y="502" as="targetPoint" />
            <mxPoint x="-40" y="32" as="offset" />
          </mxGeometry>
        </mxCell>
        <mxCell id="zkfFHV4jXpPFQw0GAbJ--27" value="1" style="resizable=0;align=left;verticalAlign=bottom;labelBackgroundColor=none;fontSize=12;" parent="zkfFHV4jXpPFQw0GAbJ--26" connectable="0" vertex="1">
          <mxGeometry x="-1" relative="1" as="geometry">
            <mxPoint x="10" y="-7" as="offset" />
          </mxGeometry>
        </mxCell>
        <mxCell id="Skbbb8CCbyP5ibG20lvN-1" value="*" style="resizable=0;align=left;verticalAlign=bottom;labelBackgroundColor=none;fontSize=12;" connectable="0" vertex="1" parent="WIyWlLk6GJQsqaUBKTNV-1">
          <mxGeometry x="849.9999999999998" y="510.0005882352941" as="geometry" />
        </mxCell>
        <mxCell id="Skbbb8CCbyP5ibG20lvN-67" style="edgeStyle=none;orthogonalLoop=1;jettySize=auto;html=1;entryX=0;entryY=0.5;entryDx=0;entryDy=0;strokeColor=default;startArrow=none;startFill=0;endArrow=none;endFill=0;exitX=1;exitY=0.5;exitDx=0;exitDy=0;" edge="1" parent="WIyWlLk6GJQsqaUBKTNV-1" source="Skbbb8CCbyP5ibG20lvN-11" target="zkfFHV4jXpPFQw0GAbJ--22">
          <mxGeometry relative="1" as="geometry" />
        </mxCell>
        <mxCell id="Skbbb8CCbyP5ibG20lvN-105" style="edgeStyle=none;orthogonalLoop=1;jettySize=auto;html=1;strokeColor=default;startArrow=none;startFill=0;endArrow=none;endFill=0;" edge="1" parent="WIyWlLk6GJQsqaUBKTNV-1" source="Skbbb8CCbyP5ibG20lvN-10">
          <mxGeometry relative="1" as="geometry">
            <mxPoint x="270" y="270" as="targetPoint" />
          </mxGeometry>
        </mxCell>
        <mxCell id="Skbbb8CCbyP5ibG20lvN-106" style="edgeStyle=none;orthogonalLoop=1;jettySize=auto;html=1;strokeColor=default;startArrow=none;startFill=0;endArrow=block;endFill=0;endSize=16;" edge="1" parent="WIyWlLk6GJQsqaUBKTNV-1" source="Skbbb8CCbyP5ibG20lvN-10">
          <mxGeometry relative="1" as="geometry">
            <mxPoint x="580" y="350" as="targetPoint" />
          </mxGeometry>
        </mxCell>
        <mxCell id="Skbbb8CCbyP5ibG20lvN-10" value="Patient" style="swimlane;fontStyle=1;align=center;verticalAlign=top;childLayout=stackLayout;horizontal=1;startSize=26;horizontalStack=0;resizeParent=1;resizeParentMax=0;resizeLast=0;collapsible=1;marginBottom=0;" vertex="1" parent="WIyWlLk6GJQsqaUBKTNV-1">
          <mxGeometry x="500" y="680" width="160" height="156" as="geometry" />
        </mxCell>
        <mxCell id="Skbbb8CCbyP5ibG20lvN-11" value="-idPatient:int&#xa;" style="text;strokeColor=none;fillColor=none;align=left;verticalAlign=top;spacingLeft=4;spacingRight=4;overflow=hidden;rotatable=0;points=[[0,0.5],[1,0.5]];portConstraint=eastwest;" vertex="1" parent="Skbbb8CCbyP5ibG20lvN-10">
          <mxGeometry y="26" width="160" height="26" as="geometry" />
        </mxCell>
        <mxCell id="Skbbb8CCbyP5ibG20lvN-16" value="-etatAffectation:Boolean" style="text;strokeColor=none;align=left;fillColor=none;html=1;verticalAlign=top;whiteSpace=wrap;rounded=0;" vertex="1" parent="Skbbb8CCbyP5ibG20lvN-10">
          <mxGeometry y="52" width="160" height="30" as="geometry" />
        </mxCell>
        <mxCell id="Skbbb8CCbyP5ibG20lvN-17" value="-consulterParJour:int" style="text;strokeColor=none;align=left;fillColor=none;html=1;verticalAlign=top;whiteSpace=wrap;rounded=0;" vertex="1" parent="Skbbb8CCbyP5ibG20lvN-10">
          <mxGeometry y="82" width="160" height="30" as="geometry" />
        </mxCell>
        <mxCell id="Skbbb8CCbyP5ibG20lvN-12" value="" style="line;strokeWidth=1;fillColor=none;align=left;verticalAlign=middle;spacingTop=-1;spacingLeft=3;spacingRight=3;rotatable=0;labelPosition=right;points=[];portConstraint=eastwest;strokeColor=inherit;" vertex="1" parent="Skbbb8CCbyP5ibG20lvN-10">
          <mxGeometry y="112" width="160" height="18" as="geometry" />
        </mxCell>
        <mxCell id="Skbbb8CCbyP5ibG20lvN-13" value="+ method(type): type" style="text;strokeColor=none;fillColor=none;align=left;verticalAlign=top;spacingLeft=4;spacingRight=4;overflow=hidden;rotatable=0;points=[[0,0.5],[1,0.5]];portConstraint=eastwest;" vertex="1" parent="Skbbb8CCbyP5ibG20lvN-10">
          <mxGeometry y="130" width="160" height="26" as="geometry" />
        </mxCell>
        <mxCell id="Skbbb8CCbyP5ibG20lvN-14" style="orthogonalLoop=1;jettySize=auto;html=1;entryX=0;entryY=0.5;entryDx=0;entryDy=0;strokeColor=default;startArrow=none;startFill=0;endArrow=none;endFill=0;exitX=1;exitY=0.75;exitDx=0;exitDy=0;" edge="1" parent="WIyWlLk6GJQsqaUBKTNV-1" source="zkfFHV4jXpPFQw0GAbJ--0" target="Skbbb8CCbyP5ibG20lvN-11">
          <mxGeometry relative="1" as="geometry">
            <mxPoint x="190" y="770" as="sourcePoint" />
            <mxPoint x="500" y="570" as="targetPoint" />
            <Array as="points" />
          </mxGeometry>
        </mxCell>
        <mxCell id="Skbbb8CCbyP5ibG20lvN-69" style="edgeStyle=none;orthogonalLoop=1;jettySize=auto;html=1;strokeColor=default;startArrow=none;startFill=0;endArrow=none;endFill=0;dashed=1;" edge="1" parent="WIyWlLk6GJQsqaUBKTNV-1" source="Skbbb8CCbyP5ibG20lvN-18">
          <mxGeometry relative="1" as="geometry">
            <mxPoint x="755" y="640" as="targetPoint" />
          </mxGeometry>
        </mxCell>
        <mxCell id="Skbbb8CCbyP5ibG20lvN-18" value="Affectation" style="swimlane;fontStyle=1;align=center;verticalAlign=top;childLayout=stackLayout;horizontal=1;startSize=26;horizontalStack=0;resizeParent=1;resizeParentMax=0;resizeLast=0;collapsible=1;marginBottom=0;" vertex="1" parent="WIyWlLk6GJQsqaUBKTNV-1">
          <mxGeometry x="680" y="220" width="150" height="160" as="geometry" />
        </mxCell>
        <mxCell id="Skbbb8CCbyP5ibG20lvN-19" value="-idAffect:int&#xa;" style="text;strokeColor=none;fillColor=none;align=left;verticalAlign=top;spacingLeft=4;spacingRight=4;overflow=hidden;rotatable=0;points=[[0,0.5],[1,0.5]];portConstraint=eastwest;" vertex="1" parent="Skbbb8CCbyP5ibG20lvN-18">
          <mxGeometry y="26" width="150" height="26" as="geometry" />
        </mxCell>
        <mxCell id="Skbbb8CCbyP5ibG20lvN-20" value="&lt;div align=&quot;left&quot;&gt;-dateAffect:DateTemp&lt;/div&gt;" style="text;strokeColor=none;align=left;fillColor=none;html=1;verticalAlign=top;whiteSpace=wrap;rounded=0;" vertex="1" parent="Skbbb8CCbyP5ibG20lvN-18">
          <mxGeometry y="52" width="150" height="30" as="geometry" />
        </mxCell>
        <mxCell id="Skbbb8CCbyP5ibG20lvN-21" value="-dateFin:Date" style="text;strokeColor=none;align=left;fillColor=none;html=1;verticalAlign=top;whiteSpace=wrap;rounded=0;" vertex="1" parent="Skbbb8CCbyP5ibG20lvN-18">
          <mxGeometry y="82" width="150" height="30" as="geometry" />
        </mxCell>
        <mxCell id="Skbbb8CCbyP5ibG20lvN-24" value="&lt;div&gt;-dateRetourner:DateTemp&lt;/div&gt;" style="text;strokeColor=none;align=left;fillColor=none;html=1;verticalAlign=top;whiteSpace=wrap;rounded=0;" vertex="1" parent="Skbbb8CCbyP5ibG20lvN-18">
          <mxGeometry y="112" width="150" height="30" as="geometry" />
        </mxCell>
        <mxCell id="Skbbb8CCbyP5ibG20lvN-22" value="" style="line;strokeWidth=1;fillColor=none;align=left;verticalAlign=middle;spacingTop=-1;spacingLeft=3;spacingRight=3;rotatable=0;labelPosition=right;points=[];portConstraint=eastwest;strokeColor=inherit;" vertex="1" parent="Skbbb8CCbyP5ibG20lvN-18">
          <mxGeometry y="142" width="150" height="18" as="geometry" />
        </mxCell>
        <mxCell id="Skbbb8CCbyP5ibG20lvN-39" value="Date" style="swimlane;fontStyle=1;align=center;verticalAlign=top;childLayout=stackLayout;horizontal=1;startSize=26;horizontalStack=0;resizeParent=1;resizeLast=0;collapsible=1;marginBottom=0;rounded=0;shadow=0;strokeWidth=1;" vertex="1" parent="WIyWlLk6GJQsqaUBKTNV-1">
          <mxGeometry x="1076" y="362" width="90" height="108" as="geometry">
            <mxRectangle x="550" y="140" width="160" height="26" as="alternateBounds" />
          </mxGeometry>
        </mxCell>
        <mxCell id="Skbbb8CCbyP5ibG20lvN-40" value="-jour:int" style="text;align=left;verticalAlign=top;spacingLeft=4;spacingRight=4;overflow=hidden;rotatable=0;points=[[0,0.5],[1,0.5]];portConstraint=eastwest;rounded=0;shadow=0;html=0;" vertex="1" parent="Skbbb8CCbyP5ibG20lvN-39">
          <mxGeometry y="26" width="90" height="26" as="geometry" />
        </mxCell>
        <mxCell id="Skbbb8CCbyP5ibG20lvN-41" value="-mois:int" style="text;align=left;verticalAlign=top;spacingLeft=4;spacingRight=4;overflow=hidden;rotatable=0;points=[[0,0.5],[1,0.5]];portConstraint=eastwest;rounded=0;shadow=0;html=0;" vertex="1" parent="Skbbb8CCbyP5ibG20lvN-39">
          <mxGeometry y="52" width="90" height="26" as="geometry" />
        </mxCell>
        <mxCell id="Skbbb8CCbyP5ibG20lvN-42" value="-annee:int" style="text;align=left;verticalAlign=top;spacingLeft=4;spacingRight=4;overflow=hidden;rotatable=0;points=[[0,0.5],[1,0.5]];portConstraint=eastwest;rounded=0;shadow=0;html=0;" vertex="1" parent="Skbbb8CCbyP5ibG20lvN-39">
          <mxGeometry y="78" width="90" height="26" as="geometry" />
        </mxCell>
        <mxCell id="Skbbb8CCbyP5ibG20lvN-59" style="edgeStyle=none;orthogonalLoop=1;jettySize=auto;html=1;strokeColor=default;startArrow=none;startFill=0;endArrow=block;endFill=0;endSize=16;" edge="1" parent="WIyWlLk6GJQsqaUBKTNV-1" source="Skbbb8CCbyP5ibG20lvN-53">
          <mxGeometry relative="1" as="geometry">
            <mxPoint x="1121" y="469" as="targetPoint" />
          </mxGeometry>
        </mxCell>
        <mxCell id="Skbbb8CCbyP5ibG20lvN-53" value="DateTemp" style="swimlane;fontStyle=1;align=center;verticalAlign=top;childLayout=stackLayout;horizontal=1;startSize=26;horizontalStack=0;resizeParent=1;resizeLast=0;collapsible=1;marginBottom=0;rounded=0;shadow=0;strokeWidth=1;" vertex="1" parent="WIyWlLk6GJQsqaUBKTNV-1">
          <mxGeometry x="1076" y="569" width="90" height="104" as="geometry">
            <mxRectangle x="550" y="140" width="160" height="26" as="alternateBounds" />
          </mxGeometry>
        </mxCell>
        <mxCell id="Skbbb8CCbyP5ibG20lvN-54" value="-H:int" style="text;align=left;verticalAlign=top;spacingLeft=4;spacingRight=4;overflow=hidden;rotatable=0;points=[[0,0.5],[1,0.5]];portConstraint=eastwest;rounded=0;shadow=0;html=0;" vertex="1" parent="Skbbb8CCbyP5ibG20lvN-53">
          <mxGeometry y="26" width="90" height="26" as="geometry" />
        </mxCell>
        <mxCell id="Skbbb8CCbyP5ibG20lvN-55" value="-M:int" style="text;align=left;verticalAlign=top;spacingLeft=4;spacingRight=4;overflow=hidden;rotatable=0;points=[[0,0.5],[1,0.5]];portConstraint=eastwest;rounded=0;shadow=0;html=0;" vertex="1" parent="Skbbb8CCbyP5ibG20lvN-53">
          <mxGeometry y="52" width="90" height="26" as="geometry" />
        </mxCell>
        <mxCell id="Skbbb8CCbyP5ibG20lvN-57" value="-S:int" style="text;align=left;verticalAlign=top;spacingLeft=4;spacingRight=4;overflow=hidden;rotatable=0;points=[[0,0.5],[1,0.5]];portConstraint=eastwest;rounded=0;shadow=0;html=0;" vertex="1" parent="Skbbb8CCbyP5ibG20lvN-53">
          <mxGeometry y="78" width="90" height="26" as="geometry" />
        </mxCell>
        <mxCell id="Skbbb8CCbyP5ibG20lvN-72" style="edgeStyle=none;orthogonalLoop=1;jettySize=auto;html=1;strokeColor=default;startArrow=none;startFill=0;endArrow=none;endFill=0;exitX=0.005;exitY=1.005;exitDx=0;exitDy=0;exitPerimeter=0;" edge="1" parent="WIyWlLk6GJQsqaUBKTNV-1" source="Skbbb8CCbyP5ibG20lvN-13" target="Skbbb8CCbyP5ibG20lvN-73">
          <mxGeometry relative="1" as="geometry">
            <mxPoint x="360" y="990" as="targetPoint" />
          </mxGeometry>
        </mxCell>
        <mxCell id="Skbbb8CCbyP5ibG20lvN-73" value="Gps" style="swimlane;fontStyle=1;align=center;verticalAlign=top;childLayout=stackLayout;horizontal=1;startSize=26;horizontalStack=0;resizeParent=1;resizeParentMax=0;resizeLast=0;collapsible=1;marginBottom=0;" vertex="1" parent="WIyWlLk6GJQsqaUBKTNV-1">
          <mxGeometry x="280" y="945" width="160" height="86" as="geometry" />
        </mxCell>
        <mxCell id="Skbbb8CCbyP5ibG20lvN-74" value="-idGps:int" style="text;strokeColor=none;fillColor=none;align=left;verticalAlign=top;spacingLeft=4;spacingRight=4;overflow=hidden;rotatable=0;points=[[0,0.5],[1,0.5]];portConstraint=eastwest;" vertex="1" parent="Skbbb8CCbyP5ibG20lvN-73">
          <mxGeometry y="26" width="160" height="26" as="geometry" />
        </mxCell>
        <mxCell id="Skbbb8CCbyP5ibG20lvN-89" value="-dateEnvoi:DateTemp" style="text;strokeColor=none;fillColor=none;align=left;verticalAlign=top;spacingLeft=4;spacingRight=4;overflow=hidden;rotatable=0;points=[[0,0.5],[1,0.5]];portConstraint=eastwest;" vertex="1" parent="Skbbb8CCbyP5ibG20lvN-73">
          <mxGeometry y="52" width="160" height="26" as="geometry" />
        </mxCell>
        <mxCell id="Skbbb8CCbyP5ibG20lvN-75" value="" style="line;strokeWidth=1;fillColor=none;align=left;verticalAlign=middle;spacingTop=-1;spacingLeft=3;spacingRight=3;rotatable=0;labelPosition=right;points=[];portConstraint=eastwest;strokeColor=inherit;" vertex="1" parent="Skbbb8CCbyP5ibG20lvN-73">
          <mxGeometry y="78" width="160" height="8" as="geometry" />
        </mxCell>
        <mxCell id="Skbbb8CCbyP5ibG20lvN-81" style="edgeStyle=none;orthogonalLoop=1;jettySize=auto;html=1;strokeColor=default;startArrow=none;startFill=0;endArrow=none;endFill=0;exitX=0;exitY=0;exitDx=0;exitDy=0;" edge="1" target="Skbbb8CCbyP5ibG20lvN-82" parent="WIyWlLk6GJQsqaUBKTNV-1" source="Skbbb8CCbyP5ibG20lvN-17">
          <mxGeometry relative="1" as="geometry">
            <mxPoint x="160" y="849" as="targetPoint" />
            <mxPoint x="365.1428571428571" y="695" as="sourcePoint" />
          </mxGeometry>
        </mxCell>
        <mxCell id="Skbbb8CCbyP5ibG20lvN-82" value="Environnement" style="swimlane;fontStyle=1;align=center;verticalAlign=top;childLayout=stackLayout;horizontal=1;startSize=26;horizontalStack=0;resizeParent=1;resizeParentMax=0;resizeLast=0;collapsible=1;marginBottom=0;" vertex="1" parent="WIyWlLk6GJQsqaUBKTNV-1">
          <mxGeometry x="80" y="804" width="160" height="141" as="geometry" />
        </mxCell>
        <mxCell id="Skbbb8CCbyP5ibG20lvN-83" value="-idEnv:int" style="text;strokeColor=none;fillColor=none;align=left;verticalAlign=top;spacingLeft=4;spacingRight=4;overflow=hidden;rotatable=0;points=[[0,0.5],[1,0.5]];portConstraint=eastwest;" vertex="1" parent="Skbbb8CCbyP5ibG20lvN-82">
          <mxGeometry y="26" width="160" height="26" as="geometry" />
        </mxCell>
        <mxCell id="Skbbb8CCbyP5ibG20lvN-84" value="-dateEnvoi:DateTemp" style="text;strokeColor=none;fillColor=none;align=left;verticalAlign=top;spacingLeft=4;spacingRight=4;overflow=hidden;rotatable=0;points=[[0,0.5],[1,0.5]];portConstraint=eastwest;" vertex="1" parent="Skbbb8CCbyP5ibG20lvN-82">
          <mxGeometry y="52" width="160" height="26" as="geometry" />
        </mxCell>
        <mxCell id="Skbbb8CCbyP5ibG20lvN-85" value="-valeurTemperature:float" style="text;strokeColor=none;fillColor=none;align=left;verticalAlign=top;spacingLeft=4;spacingRight=4;overflow=hidden;rotatable=0;points=[[0,0.5],[1,0.5]];portConstraint=eastwest;" vertex="1" parent="Skbbb8CCbyP5ibG20lvN-82">
          <mxGeometry y="78" width="160" height="29" as="geometry" />
        </mxCell>
        <mxCell id="Skbbb8CCbyP5ibG20lvN-86" value="-valeurHumidite:float" style="text;strokeColor=none;fillColor=none;align=left;verticalAlign=top;spacingLeft=4;spacingRight=4;overflow=hidden;rotatable=0;points=[[0,0.5],[1,0.5]];portConstraint=eastwest;" vertex="1" parent="Skbbb8CCbyP5ibG20lvN-82">
          <mxGeometry y="107" width="160" height="26" as="geometry" />
        </mxCell>
        <mxCell id="Skbbb8CCbyP5ibG20lvN-87" value="" style="line;strokeWidth=1;fillColor=none;align=left;verticalAlign=middle;spacingTop=-1;spacingLeft=3;spacingRight=3;rotatable=0;labelPosition=right;points=[];portConstraint=eastwest;strokeColor=inherit;" vertex="1" parent="Skbbb8CCbyP5ibG20lvN-82">
          <mxGeometry y="133" width="160" height="8" as="geometry" />
        </mxCell>
        <mxCell id="Skbbb8CCbyP5ibG20lvN-90" style="edgeStyle=none;orthogonalLoop=1;jettySize=auto;html=1;strokeColor=default;startArrow=none;startFill=0;endArrow=none;endFill=0;exitX=0.44;exitY=1.005;exitDx=0;exitDy=0;exitPerimeter=0;" edge="1" target="Skbbb8CCbyP5ibG20lvN-91" parent="WIyWlLk6GJQsqaUBKTNV-1" source="Skbbb8CCbyP5ibG20lvN-13">
          <mxGeometry relative="1" as="geometry">
            <mxPoint x="600" y="1018.8699999999999" as="targetPoint" />
            <mxPoint x="740.8" y="865" as="sourcePoint" />
          </mxGeometry>
        </mxCell>
        <mxCell id="Skbbb8CCbyP5ibG20lvN-91" value="BattementCoeur" style="swimlane;fontStyle=1;align=center;verticalAlign=top;childLayout=stackLayout;horizontal=1;startSize=26;horizontalStack=0;resizeParent=1;resizeParentMax=0;resizeLast=0;collapsible=1;marginBottom=0;" vertex="1" parent="WIyWlLk6GJQsqaUBKTNV-1">
          <mxGeometry x="490" y="1031" width="160" height="86" as="geometry" />
        </mxCell>
        <mxCell id="Skbbb8CCbyP5ibG20lvN-92" value="-idBc:int" style="text;strokeColor=none;fillColor=none;align=left;verticalAlign=top;spacingLeft=4;spacingRight=4;overflow=hidden;rotatable=0;points=[[0,0.5],[1,0.5]];portConstraint=eastwest;" vertex="1" parent="Skbbb8CCbyP5ibG20lvN-91">
          <mxGeometry y="26" width="160" height="26" as="geometry" />
        </mxCell>
        <mxCell id="Skbbb8CCbyP5ibG20lvN-93" value="-dateEnvoi:DateTemp" style="text;strokeColor=none;fillColor=none;align=left;verticalAlign=top;spacingLeft=4;spacingRight=4;overflow=hidden;rotatable=0;points=[[0,0.5],[1,0.5]];portConstraint=eastwest;" vertex="1" parent="Skbbb8CCbyP5ibG20lvN-91">
          <mxGeometry y="52" width="160" height="26" as="geometry" />
        </mxCell>
        <mxCell id="Skbbb8CCbyP5ibG20lvN-94" value="" style="line;strokeWidth=1;fillColor=none;align=left;verticalAlign=middle;spacingTop=-1;spacingLeft=3;spacingRight=3;rotatable=0;labelPosition=right;points=[];portConstraint=eastwest;strokeColor=inherit;" vertex="1" parent="Skbbb8CCbyP5ibG20lvN-91">
          <mxGeometry y="78" width="160" height="8" as="geometry" />
        </mxCell>
        <mxCell id="Skbbb8CCbyP5ibG20lvN-95" style="edgeStyle=none;orthogonalLoop=1;jettySize=auto;html=1;strokeColor=default;startArrow=none;startFill=0;endArrow=none;endFill=0;exitX=1.011;exitY=1.005;exitDx=0;exitDy=0;exitPerimeter=0;" edge="1" target="Skbbb8CCbyP5ibG20lvN-96" parent="WIyWlLk6GJQsqaUBKTNV-1" source="Skbbb8CCbyP5ibG20lvN-13">
          <mxGeometry relative="1" as="geometry">
            <mxPoint x="760" y="993.8699999999999" as="targetPoint" />
            <mxPoint x="900.8" y="840" as="sourcePoint" />
          </mxGeometry>
        </mxCell>
        <mxCell id="Skbbb8CCbyP5ibG20lvN-96" value="Shock" style="swimlane;fontStyle=1;align=center;verticalAlign=top;childLayout=stackLayout;horizontal=1;startSize=26;horizontalStack=0;resizeParent=1;resizeParentMax=0;resizeLast=0;collapsible=1;marginBottom=0;" vertex="1" parent="WIyWlLk6GJQsqaUBKTNV-1">
          <mxGeometry x="680" y="948.8699999999999" width="160" height="86" as="geometry" />
        </mxCell>
        <mxCell id="Skbbb8CCbyP5ibG20lvN-97" value="-idSchock:int" style="text;strokeColor=none;fillColor=none;align=left;verticalAlign=top;spacingLeft=4;spacingRight=4;overflow=hidden;rotatable=0;points=[[0,0.5],[1,0.5]];portConstraint=eastwest;" vertex="1" parent="Skbbb8CCbyP5ibG20lvN-96">
          <mxGeometry y="26" width="160" height="26" as="geometry" />
        </mxCell>
        <mxCell id="Skbbb8CCbyP5ibG20lvN-98" value="-dateEnvoi:DateTemp" style="text;strokeColor=none;fillColor=none;align=left;verticalAlign=top;spacingLeft=4;spacingRight=4;overflow=hidden;rotatable=0;points=[[0,0.5],[1,0.5]];portConstraint=eastwest;" vertex="1" parent="Skbbb8CCbyP5ibG20lvN-96">
          <mxGeometry y="52" width="160" height="26" as="geometry" />
        </mxCell>
        <mxCell id="Skbbb8CCbyP5ibG20lvN-99" value="" style="line;strokeWidth=1;fillColor=none;align=left;verticalAlign=middle;spacingTop=-1;spacingLeft=3;spacingRight=3;rotatable=0;labelPosition=right;points=[];portConstraint=eastwest;strokeColor=inherit;" vertex="1" parent="Skbbb8CCbyP5ibG20lvN-96">
          <mxGeometry y="78" width="160" height="8" as="geometry" />
        </mxCell>
        <mxCell id="Skbbb8CCbyP5ibG20lvN-100" style="edgeStyle=none;orthogonalLoop=1;jettySize=auto;html=1;strokeColor=default;startArrow=none;startFill=0;endArrow=none;endFill=0;exitX=1;exitY=0.75;exitDx=0;exitDy=0;" edge="1" target="Skbbb8CCbyP5ibG20lvN-101" parent="WIyWlLk6GJQsqaUBKTNV-1" source="Skbbb8CCbyP5ibG20lvN-16">
          <mxGeometry relative="1" as="geometry">
            <mxPoint x="1010" y="903.8699999999999" as="targetPoint" />
            <mxPoint x="680" y="760" as="sourcePoint" />
          </mxGeometry>
        </mxCell>
        <mxCell id="Skbbb8CCbyP5ibG20lvN-101" value="Temperature" style="swimlane;fontStyle=1;align=center;verticalAlign=top;childLayout=stackLayout;horizontal=1;startSize=26;horizontalStack=0;resizeParent=1;resizeParentMax=0;resizeLast=0;collapsible=1;marginBottom=0;" vertex="1" parent="WIyWlLk6GJQsqaUBKTNV-1">
          <mxGeometry x="930" y="858.8699999999999" width="160" height="86" as="geometry" />
        </mxCell>
        <mxCell id="Skbbb8CCbyP5ibG20lvN-102" value="-idTemp:int" style="text;strokeColor=none;fillColor=none;align=left;verticalAlign=top;spacingLeft=4;spacingRight=4;overflow=hidden;rotatable=0;points=[[0,0.5],[1,0.5]];portConstraint=eastwest;" vertex="1" parent="Skbbb8CCbyP5ibG20lvN-101">
          <mxGeometry y="26" width="160" height="26" as="geometry" />
        </mxCell>
        <mxCell id="Skbbb8CCbyP5ibG20lvN-103" value="-dateEnvoi:DateTemp" style="text;strokeColor=none;fillColor=none;align=left;verticalAlign=top;spacingLeft=4;spacingRight=4;overflow=hidden;rotatable=0;points=[[0,0.5],[1,0.5]];portConstraint=eastwest;" vertex="1" parent="Skbbb8CCbyP5ibG20lvN-101">
          <mxGeometry y="52" width="160" height="26" as="geometry" />
        </mxCell>
        <mxCell id="Skbbb8CCbyP5ibG20lvN-104" value="" style="line;strokeWidth=1;fillColor=none;align=left;verticalAlign=middle;spacingTop=-1;spacingLeft=3;spacingRight=3;rotatable=0;labelPosition=right;points=[];portConstraint=eastwest;strokeColor=inherit;" vertex="1" parent="Skbbb8CCbyP5ibG20lvN-101">
          <mxGeometry y="78" width="160" height="8" as="geometry" />
        </mxCell>
        <mxCell id="Skbbb8CCbyP5ibG20lvN-109" value="Person" style="swimlane;fontStyle=1;align=center;verticalAlign=top;childLayout=stackLayout;horizontal=1;startSize=26;horizontalStack=0;resizeParent=1;resizeLast=0;collapsible=1;marginBottom=0;rounded=0;shadow=0;strokeWidth=1;" vertex="1" parent="WIyWlLk6GJQsqaUBKTNV-1">
          <mxGeometry x="500" y="120" width="110" height="230" as="geometry">
            <mxRectangle x="550" y="140" width="160" height="26" as="alternateBounds" />
          </mxGeometry>
        </mxCell>
        <mxCell id="Skbbb8CCbyP5ibG20lvN-110" value="#idPerson:int" style="text;align=left;verticalAlign=top;spacingLeft=4;spacingRight=4;overflow=hidden;rotatable=0;points=[[0,0.5],[1,0.5]];portConstraint=eastwest;rounded=0;shadow=0;html=0;" vertex="1" parent="Skbbb8CCbyP5ibG20lvN-109">
          <mxGeometry y="26" width="110" height="26" as="geometry" />
        </mxCell>
        <mxCell id="Skbbb8CCbyP5ibG20lvN-111" value="#nom:String" style="text;align=left;verticalAlign=top;spacingLeft=4;spacingRight=4;overflow=hidden;rotatable=0;points=[[0,0.5],[1,0.5]];portConstraint=eastwest;rounded=0;shadow=0;html=0;" vertex="1" parent="Skbbb8CCbyP5ibG20lvN-109">
          <mxGeometry y="52" width="110" height="26" as="geometry" />
        </mxCell>
        <mxCell id="Skbbb8CCbyP5ibG20lvN-112" value="#prenom:string" style="text;align=left;verticalAlign=top;spacingLeft=4;spacingRight=4;overflow=hidden;rotatable=0;points=[[0,0.5],[1,0.5]];portConstraint=eastwest;rounded=0;shadow=0;html=0;" vertex="1" parent="Skbbb8CCbyP5ibG20lvN-109">
          <mxGeometry y="78" width="110" height="26" as="geometry" />
        </mxCell>
        <mxCell id="Skbbb8CCbyP5ibG20lvN-135" value="#dateNe:Date" style="text;align=left;verticalAlign=top;spacingLeft=4;spacingRight=4;overflow=hidden;rotatable=0;points=[[0,0.5],[1,0.5]];portConstraint=eastwest;rounded=0;shadow=0;html=0;" vertex="1" parent="Skbbb8CCbyP5ibG20lvN-109">
          <mxGeometry y="104" width="110" height="26" as="geometry" />
        </mxCell>
        <mxCell id="Skbbb8CCbyP5ibG20lvN-134" value="#adress:string" style="text;align=left;verticalAlign=top;spacingLeft=4;spacingRight=4;overflow=hidden;rotatable=0;points=[[0,0.5],[1,0.5]];portConstraint=eastwest;rounded=0;shadow=0;html=0;" vertex="1" parent="Skbbb8CCbyP5ibG20lvN-109">
          <mxGeometry y="130" width="110" height="26" as="geometry" />
        </mxCell>
        <mxCell id="Skbbb8CCbyP5ibG20lvN-133" value="#email:string" style="text;align=left;verticalAlign=top;spacingLeft=4;spacingRight=4;overflow=hidden;rotatable=0;points=[[0,0.5],[1,0.5]];portConstraint=eastwest;rounded=0;shadow=0;html=0;" vertex="1" parent="Skbbb8CCbyP5ibG20lvN-109">
          <mxGeometry y="156" width="110" height="26" as="geometry" />
        </mxCell>
        <mxCell id="Skbbb8CCbyP5ibG20lvN-132" value="#dateCree:Date" style="text;align=left;verticalAlign=top;spacingLeft=4;spacingRight=4;overflow=hidden;rotatable=0;points=[[0,0.5],[1,0.5]];portConstraint=eastwest;rounded=0;shadow=0;html=0;" vertex="1" parent="Skbbb8CCbyP5ibG20lvN-109">
          <mxGeometry y="182" width="110" height="26" as="geometry" />
        </mxCell>
        <mxCell id="Skbbb8CCbyP5ibG20lvN-113" value="" style="line;html=1;strokeWidth=1;align=left;verticalAlign=middle;spacingTop=-1;spacingLeft=3;spacingRight=3;rotatable=0;labelPosition=right;points=[];portConstraint=eastwest;" vertex="1" parent="Skbbb8CCbyP5ibG20lvN-109">
          <mxGeometry y="208" width="110" height="22" as="geometry" />
        </mxCell>
        <mxCell id="Skbbb8CCbyP5ibG20lvN-114" value="Notification" style="swimlane;fontStyle=1;align=center;verticalAlign=top;childLayout=stackLayout;horizontal=1;startSize=26;horizontalStack=0;resizeParent=1;resizeLast=0;collapsible=1;marginBottom=0;rounded=0;shadow=0;strokeWidth=1;" vertex="1" parent="WIyWlLk6GJQsqaUBKTNV-1">
          <mxGeometry x="170" y="150" width="130" height="138" as="geometry">
            <mxRectangle x="550" y="140" width="160" height="26" as="alternateBounds" />
          </mxGeometry>
        </mxCell>
        <mxCell id="Skbbb8CCbyP5ibG20lvN-115" value="-idNotif:int" style="text;align=left;verticalAlign=top;spacingLeft=4;spacingRight=4;overflow=hidden;rotatable=0;points=[[0,0.5],[1,0.5]];portConstraint=eastwest;rounded=0;shadow=0;html=0;" vertex="1" parent="Skbbb8CCbyP5ibG20lvN-114">
          <mxGeometry y="26" width="130" height="26" as="geometry" />
        </mxCell>
        <mxCell id="Skbbb8CCbyP5ibG20lvN-145" value="-dateEnvoi:DateTemp" style="text;strokeColor=none;fillColor=none;align=left;verticalAlign=top;spacingLeft=4;spacingRight=4;overflow=hidden;rotatable=0;points=[[0,0.5],[1,0.5]];portConstraint=eastwest;" vertex="1" parent="Skbbb8CCbyP5ibG20lvN-114">
          <mxGeometry y="52" width="130" height="26" as="geometry" />
        </mxCell>
        <mxCell id="Skbbb8CCbyP5ibG20lvN-149" value="-contenu:string " style="text;strokeColor=none;fillColor=none;align=left;verticalAlign=top;spacingLeft=4;spacingRight=4;overflow=hidden;rotatable=0;points=[[0,0.5],[1,0.5]];portConstraint=eastwest;" vertex="1" parent="Skbbb8CCbyP5ibG20lvN-114">
          <mxGeometry y="78" width="130" height="26" as="geometry" />
        </mxCell>
        <mxCell id="Skbbb8CCbyP5ibG20lvN-147" value="-vu:Boolean" style="text;strokeColor=none;fillColor=none;align=left;verticalAlign=top;spacingLeft=4;spacingRight=4;overflow=hidden;rotatable=0;points=[[0,0.5],[1,0.5]];portConstraint=eastwest;" vertex="1" parent="Skbbb8CCbyP5ibG20lvN-114">
          <mxGeometry y="104" width="130" height="26" as="geometry" />
        </mxCell>
        <mxCell id="Skbbb8CCbyP5ibG20lvN-118" value="" style="line;html=1;strokeWidth=1;align=left;verticalAlign=middle;spacingTop=-1;spacingLeft=3;spacingRight=3;rotatable=0;labelPosition=right;points=[];portConstraint=eastwest;" vertex="1" parent="Skbbb8CCbyP5ibG20lvN-114">
          <mxGeometry y="130" width="130" height="8" as="geometry" />
        </mxCell>
        <mxCell id="Skbbb8CCbyP5ibG20lvN-119" value="*" style="resizable=0;align=left;verticalAlign=bottom;labelBackgroundColor=none;fontSize=12;" connectable="0" vertex="1" parent="WIyWlLk6GJQsqaUBKTNV-1">
          <mxGeometry x="370" y="750" as="geometry">
            <mxPoint x="300" y="-53" as="offset" />
          </mxGeometry>
        </mxCell>
        <mxCell id="Skbbb8CCbyP5ibG20lvN-120" value="*" style="resizable=0;align=left;verticalAlign=bottom;labelBackgroundColor=none;fontSize=12;" connectable="0" vertex="1" parent="WIyWlLk6GJQsqaUBKTNV-1">
          <mxGeometry x="550" y="600" as="geometry">
            <mxPoint x="300" y="-53" as="offset" />
          </mxGeometry>
        </mxCell>
        <mxCell id="Skbbb8CCbyP5ibG20lvN-121" value="*" style="resizable=0;align=left;verticalAlign=bottom;labelBackgroundColor=none;fontSize=12;" connectable="0" vertex="1" parent="WIyWlLk6GJQsqaUBKTNV-1">
          <mxGeometry x="610" y="910" as="geometry">
            <mxPoint x="300" y="-53" as="offset" />
          </mxGeometry>
        </mxCell>
        <mxCell id="Skbbb8CCbyP5ibG20lvN-122" value="*" style="resizable=0;align=left;verticalAlign=bottom;labelBackgroundColor=none;fontSize=12;" connectable="0" vertex="1" parent="WIyWlLk6GJQsqaUBKTNV-1">
          <mxGeometry x="435" y="1000" as="geometry">
            <mxPoint x="300" y="-53" as="offset" />
          </mxGeometry>
        </mxCell>
        <mxCell id="Skbbb8CCbyP5ibG20lvN-123" value="*" style="resizable=0;align=left;verticalAlign=bottom;labelBackgroundColor=none;fontSize=12;" connectable="0" vertex="1" parent="WIyWlLk6GJQsqaUBKTNV-1">
          <mxGeometry x="280" y="1074" as="geometry">
            <mxPoint x="300" y="-53" as="offset" />
          </mxGeometry>
        </mxCell>
        <mxCell id="Skbbb8CCbyP5ibG20lvN-124" value="*" style="resizable=0;align=left;verticalAlign=bottom;labelBackgroundColor=none;fontSize=12;" connectable="0" vertex="1" parent="WIyWlLk6GJQsqaUBKTNV-1">
          <mxGeometry x="140" y="988" as="geometry">
            <mxPoint x="300" y="-53" as="offset" />
          </mxGeometry>
        </mxCell>
        <mxCell id="Skbbb8CCbyP5ibG20lvN-125" value="*" style="resizable=0;align=left;verticalAlign=bottom;labelBackgroundColor=none;fontSize=12;" connectable="0" vertex="1" parent="WIyWlLk6GJQsqaUBKTNV-1">
          <mxGeometry x="-50" y="920" as="geometry">
            <mxPoint x="300" y="-53" as="offset" />
          </mxGeometry>
        </mxCell>
        <mxCell id="Skbbb8CCbyP5ibG20lvN-126" value="*" style="resizable=0;align=left;verticalAlign=bottom;labelBackgroundColor=none;fontSize=12;" connectable="0" vertex="1" parent="WIyWlLk6GJQsqaUBKTNV-1">
          <mxGeometry x="170" y="780" as="geometry">
            <mxPoint x="300" y="-53" as="offset" />
          </mxGeometry>
        </mxCell>
        <mxCell id="Skbbb8CCbyP5ibG20lvN-127" value="*" style="resizable=0;align=left;verticalAlign=bottom;labelBackgroundColor=none;fontSize=12;" connectable="0" vertex="1" parent="WIyWlLk6GJQsqaUBKTNV-1">
          <mxGeometry x="-70" y="350" as="geometry">
            <mxPoint x="300" y="-53" as="offset" />
          </mxGeometry>
        </mxCell>
        <mxCell id="Skbbb8CCbyP5ibG20lvN-128" value="1" style="resizable=0;align=left;verticalAlign=bottom;labelBackgroundColor=none;fontSize=12;" connectable="0" vertex="1" parent="WIyWlLk6GJQsqaUBKTNV-1">
          <mxGeometry x="230" y="416" as="geometry" />
        </mxCell>
        <mxCell id="Skbbb8CCbyP5ibG20lvN-129" value="1" style="resizable=0;align=left;verticalAlign=bottom;labelBackgroundColor=none;fontSize=12;" connectable="0" vertex="1" parent="WIyWlLk6GJQsqaUBKTNV-1">
          <mxGeometry x="390" y="530" as="geometry">
            <mxPoint x="292" y="231" as="offset" />
          </mxGeometry>
        </mxCell>
        <mxCell id="Skbbb8CCbyP5ibG20lvN-130" value="*" style="resizable=0;align=left;verticalAlign=bottom;labelBackgroundColor=none;fontSize=12;" connectable="0" vertex="1" parent="WIyWlLk6GJQsqaUBKTNV-1">
          <mxGeometry y="362" as="geometry">
            <mxPoint x="300" y="-53" as="offset" />
          </mxGeometry>
        </mxCell>
        <mxCell id="Skbbb8CCbyP5ibG20lvN-136" value="1" style="resizable=0;align=left;verticalAlign=bottom;labelBackgroundColor=none;fontSize=12;" connectable="0" vertex="1" parent="WIyWlLk6GJQsqaUBKTNV-1">
          <mxGeometry x="220" y="410" as="geometry">
            <mxPoint x="292" y="231" as="offset" />
          </mxGeometry>
        </mxCell>
        <mxCell id="Skbbb8CCbyP5ibG20lvN-137" value="1" style="resizable=0;align=left;verticalAlign=bottom;labelBackgroundColor=none;fontSize=12;" connectable="0" vertex="1" parent="WIyWlLk6GJQsqaUBKTNV-1">
          <mxGeometry x="380" y="610" as="geometry">
            <mxPoint x="292" y="231" as="offset" />
          </mxGeometry>
        </mxCell>
        <mxCell id="Skbbb8CCbyP5ibG20lvN-138" value="1" style="resizable=0;align=left;verticalAlign=bottom;labelBackgroundColor=none;fontSize=12;" connectable="0" vertex="1" parent="WIyWlLk6GJQsqaUBKTNV-1">
          <mxGeometry x="290" y="640" as="geometry">
            <mxPoint x="292" y="231" as="offset" />
          </mxGeometry>
        </mxCell>
        <mxCell id="Skbbb8CCbyP5ibG20lvN-139" value="1" style="resizable=0;align=left;verticalAlign=bottom;labelBackgroundColor=none;fontSize=12;" connectable="0" vertex="1" parent="WIyWlLk6GJQsqaUBKTNV-1">
          <mxGeometry x="210" y="640" as="geometry">
            <mxPoint x="292" y="231" as="offset" />
          </mxGeometry>
        </mxCell>
        <mxCell id="Skbbb8CCbyP5ibG20lvN-140" value="1" style="resizable=0;align=left;verticalAlign=bottom;labelBackgroundColor=none;fontSize=12;" connectable="0" vertex="1" parent="WIyWlLk6GJQsqaUBKTNV-1">
          <mxGeometry x="180" y="560" as="geometry">
            <mxPoint x="292" y="231" as="offset" />
          </mxGeometry>
        </mxCell>
        <mxCell id="Skbbb8CCbyP5ibG20lvN-141" value="1" style="resizable=0;align=left;verticalAlign=bottom;labelBackgroundColor=none;fontSize=12;" connectable="0" vertex="1" parent="WIyWlLk6GJQsqaUBKTNV-1">
          <mxGeometry x="-20" y="370" as="geometry">
            <mxPoint x="292" y="231" as="offset" />
          </mxGeometry>
        </mxCell>
        <mxCell id="Skbbb8CCbyP5ibG20lvN-142" value="&lt;font style=&quot;font-size: 31px;&quot;&gt;&lt;b&gt;Diagram de Class&lt;br&gt;&lt;/b&gt;&lt;/font&gt;" style="text;html=1;align=center;verticalAlign=middle;resizable=0;points=[];autosize=1;fontStyle=0" vertex="1" parent="WIyWlLk6GJQsqaUBKTNV-1">
          <mxGeometry x="460" y="35" width="280" height="50" as="geometry" />
        </mxCell>
      </root>
    </mxGraphModel>
  </diagram>
</mxfile>
